<?xml version="1.0" standalone="no"?><!DOCTYPE svg PUBLIC "-//W3C//DTD SVG 1.1//EN" "http://www.w3.org/Graphics/SVG/1.1/DTD/svg11.dtd"><svg t="1515116885351" class="icon" style="" viewBox="0 0 1155 1024" version="1.1" xmlns="http://www.w3.org/2000/svg" p-id="1873" xmlns:xlink="http://www.w3.org/1999/xlink" width="225.5859375" height="200"><defs><style type="text/css"></style></defs><path d="M1077.147305 441.210996l-381.324429 0.674058 191.245236-329.901034c20.363783-30.841382 9.884893-82.04913-28.115451-98.280756-30.842673-20.363783-82.04913-9.884893-98.280756 28.114158L569.426669 371.718456 379.347476 42.488898C365.844364 2.572267 320.686351-9.527203 284.901877 11.133579c-35.785765 20.660782-47.885236 65.817503-27.224454 101.603268l190.079193 329.226976-381.324429 0.672767C32.564001 433.562633-2.11383 472.669619 0.100747 509.562028c2.214578 36.892409 34.163894 75.703687 71.057594 73.487818l381.323138-0.671475L261.237534 912.276822c-20.363783 30.842673-9.886184 82.04913 28.114159 98.280757 26.710517 13.207405 52.314391 7.967314 73.784817-4.429155 7.15767-4.132156 21.471718-12.396469 24.49594-23.685004L578.878977 652.544968l190.079193 329.226977c13.504404 39.917922 58.661125 52.017392 94.445599 31.35661 35.785765-20.660782 47.886527-65.817503 27.225745-101.603269l-190.079193-329.226976 381.323137-0.672766c11.289826 3.025513 25.603874-5.238799 32.760253-9.370956 21.471718-12.396469 34.679122-39.108277 40.728857-61.685347-9.370956-32.761544-41.321564-71.571531-78.213972-69.356953z" fill="#2c2c2c" p-id="1874"></path></svg>